HIERARCHY
ROOT ui
{
	 OFFSET 0 0 0
	 CHANNELS 3 XPosition YPosition Z Position
	 EndSite
	 {
	 OFFSET 0 -1 0
	 }
}
ROOT li
{
	 OFFSET 0 0 0
	 CHANNELS 3 XPosition YPosition Z Position
	 EndSite
	 {
	 OFFSET 0 -1 0
	 }
}
ROOT ul
{
	 OFFSET 0 0 0
	 CHANNELS 3 XPosition YPosition Z Position
	 EndSite
	 {
	 OFFSET 0 -1 0
	 }
}
ROOT ll
{
	 OFFSET 0 0 0
	 CHANNELS 3 XPosition YPosition Z Position
	 EndSite
	 {
	 OFFSET 0 -1 0
	 }
}
ROOT tt
{
	 OFFSET 0 0 0
	 CHANNELS 3 XPosition YPosition Z Position
	 EndSite
	 {
	 OFFSET 0 -1 0
	 }
}
ROOT tb
{
	 OFFSET 0 0 0
	 CHANNELS 3 XPosition YPosition Z Position
	 EndSite
	 {
	 OFFSET 0 -1 0
	 }
}
ROOT td
{
	 OFFSET 0 0 0
	 CHANNELS 3 XPosition YPosition Z Position
	 EndSite
	 {
	 OFFSET 0 -1 0
	 }
}
ROOT v
{
	 OFFSET 0 0 0
	 CHANNELS 3 XPosition YPosition Z Position
	 EndSite
	 {
	 OFFSET 0 -1 0
	 }
}
ROOT bn
{
	 OFFSET 0 0 0
	 CHANNELS 3 XPosition YPosition Z Position
	 EndSite
	 {
	 OFFSET 0 -1 0
	 }
}
MOTION
Frames: 10
Frame Time: 0.002
-0.01092808723449707	0.0036858739852905272	0		0.4125480041503906	-2.350203857421875	0		-0.9809041748046875	0.23571258544921875	0		-0.6307947998046874	-2.816256103515625	0		1.7362291259765625	-0.4437809753417969	0		3.360240234375	-0.155530517578125	0		4.5246201171875	-0.2841545715332031	0		5.9744130859375	0.43647076416015623	0		-0.14483943176269531	5.90301171875	0		
-0.010757603645324708	0.0038696420192718506	0		0.46561968994140623	-2.357730224609375	0		-0.980733642578125	0.23589642333984376	0		-0.64555615234375	-2.81087158203125	0		1.7341986083984375	-0.4585691833496094	0		3.365597900390625	-0.14141529846191406	0		4.520697265625	-0.2909169006347656	0		5.97458349609375	0.436654052734375	0		-0.010385555267333984	5.92339697265625	0		
-0.01065195655822754	0.004102341175079346	0		0.43875454711914064	-2.3551357421875	0		-0.9806279907226563	0.236129150390625	0		-0.6115206298828125	-2.816094482421875	0		1.7449278564453126	-0.48648150634765625	0		3.360516357421875	-0.15511436462402345	0		4.520802734375	-0.29068426513671874	0		5.97468896484375	0.43688665771484375	0		-0.012252811431884766	5.92565625	0		
-0.004785193920135498	-0.008698032379150391	0		0.4657671813964844	-2.357218505859375	0		-0.98058642578125	0.23640794372558593	0		-0.6355570068359375	-2.8214931640625	0		1.7378629150390625	-0.4941078186035156	0		3.35158544921875	-0.15271458435058594	0		4.50885888671875	-0.28924407958984377	0		5.97473046875	0.4371662292480469	0		-0.17759925842285157	5.89814990234375	0		
-7.513880133628846E-4	-0.0044296979904174805	0		0.4247637023925781	-2.3553466796875	0		-1.041439453125	0.249547607421875	0		-0.6413761596679688	-2.806091552734375	0		1.743748779296875	-0.5008661193847657	0		3.371336181640625	-0.16966047668457032	0		4.51169140625	-0.29996307373046877	0		5.97059130859375	0.42854019165039064	0		-0.1766428680419922	5.89645947265625	0		
0.019331180572509765	0.007664618015289307	0		0.4468280944824219	-2.344280029296875	0		-0.9675220947265625	0.24892083740234375	0		-0.6374048461914062	-2.80178076171875	0		1.7514425048828124	-0.5176116333007813	0		3.374634521484375	-0.14134617614746095	0		4.52361328125	-0.2997691650390625	0		5.9746357421875	0.4378377685546875	0		-0.1436170654296875	5.9033798828125	0		
-0.010836489677429199	0.00547034502029419	0		0.4405948486328125	-2.350797607421875	0		-0.9717045288085937	0.2453819580078125	0		-0.6056434326171874	-2.808803466796875	0		1.726272216796875	-0.5198801879882813	0		3.362156005859375	-0.1667937774658203	0		4.508630859375	-0.28818463134765626	0		5.97450732421875	0.43821603393554687	0		-0.14470919799804688	5.904796875	0		
-0.0011394230127334596	-0.003222825050354004	0		0.44039718627929686	-2.350360595703125	0		-0.9769373168945312	0.2418963623046875	0		-0.64180078125	-2.804876220703125	0		1.715913818359375	-0.5323167114257813	0		3.37106689453125	-0.15949847412109375	0		4.514326171875	-0.2968556213378906	0		5.97022216796875	0.4306689453125	0		-0.1448493194580078	5.90523828125	0		
-0.011247499465942383	0.006384710788726807	0		0.44014312744140627	-2.34989111328125	0		-0.9721113891601563	0.24631292724609374	0		-0.6400328369140625	-2.802422607421875	0		1.70146484375	-0.5476708374023438	0		3.366647705078125	-0.1730042266845703	0		4.5189853515625	-0.3044945983886719	0		5.96099755859375	0.43120230102539064	0		-0.1780958709716797	5.90015771484375	0		
0.02435328483581543	-0.002594264030456543	0		0.4487267761230469	-2.357513427734375	0		-1.0423228759765626	0.25177154541015623	0		-0.6983284301757813	-2.8001298828125	0		1.70118212890625	-0.5471906127929688	0		3.39564990234375	-0.15193911743164062	0		4.5187060546875	-0.30405377197265626	0		5.97871337890625	0.4303809814453125	0		-0.21237930297851562	5.8941220703125	0		
